<?xml version="1.0" encoding="UTF-8"?>
<svg id="Capa_2" data-name="Capa 2" xmlns="http://www.w3.org/2000/svg" viewBox="0 0 652.51 118.79">
  <defs>
    <style>
      .cls-1 {
        fill: #291203;
      }
    </style>
  </defs>
  <g id="Capa_1-2" data-name="Capa 1">
    <g>
      <path class="cls-1" d="M38.39,118.79l-24.28-17.72,24.28-32.16L0,56.11l10.5-27.24,36.42,12.8V0h30.85v41.68l36.43-12.8,10.5,27.24-38.39,12.8,24.28,32.16-23.63,17.72-24.28-34.13-24.28,34.13Z"/>
      <path class="cls-1" d="M302.3,118.79l-24.28-17.72,24.28-32.16-38.39-12.8,10.5-27.24,36.42,12.8V0h30.85v41.68l36.43-12.8,10.5,27.24-38.39,12.8,24.28,32.16-23.63,17.72-24.28-34.13-24.28,34.13Z"/>
      <path class="cls-1" d="M566.2,118.79l-24.28-17.72,24.28-32.16-38.39-12.8,10.5-27.24,36.42,12.8V0h30.85v41.68l36.43-12.8,10.5,27.24-38.39,12.8,24.28,32.16-23.63,17.72-24.28-34.13-24.28,34.13Z"/>
    </g>
  </g>
</svg>