<svg width="75" height="519" viewBox="0 0 75 519" fill="none" xmlns="http://www.w3.org/2000/svg">
<path d="M43 27.2L63.8 19.2L69.6 34L48.4 41.4L61 59.2L48.8 68.6L35 50.2L22.6 68.6L9 59.4L21.8 41.6L0.800003 34L6.4 19.2L27 27.2V5H43V27.2Z" fill="white"/>
<path d="M43 249.2L63.8 241.2L69.6 256L48.4 263.4L61 281.2L48.8 290.6L35 272.2L22.6 290.6L9 281.4L21.8 263.6L0.800003 256L6.4 241.2L27 249.2V227H43V249.2Z" fill="white"/>
<path d="M43 471.2L63.8 463.2L69.6 478L48.4 485.4L61 503.2L48.8 512.6L35 494.2L22.6 512.6L9 503.4L21.8 485.6L0.800003 478L6.4 463.2L27 471.2V449H43V471.2Z" fill="white"/>
</svg>
